<?xml version="1.0" encoding="UTF-8" standalone="no"?>
<!DOCTYPE svg PUBLIC "-//W3C//DTD SVG 1.1//EN"
 "http://www.w3.org/Graphics/SVG/1.1/DTD/svg11.dtd">
<!-- Generated by graphviz version 5.0.0 (20220707.1540)
 -->
<!-- Title: StorageDiagram Pages: 1 -->
<svg width="1167pt" height="232pt"
 viewBox="0.00 0.00 1167.38 232.20" xmlns="http://www.w3.org/2000/svg" xmlns:xlink="http://www.w3.org/1999/xlink">
<g id="graph0" class="graph" transform="scale(1 1) rotate(0) translate(4 228.2)">
<title>StorageDiagram</title>
<polygon fill="white" stroke="transparent" points="-4,4 -4,-228.2 1163.38,-228.2 1163.38,4 -4,4"/>
<!-- 2 -->
<g id="node1" class="node">
<title>2</title>
<polygon fill="#f2f2f2" stroke="black" points="0,-0.5 0,-223.7 552.88,-223.7 552.88,-0.5 0,-0.5"/>
<text text-anchor="middle" x="276.44" y="-207.1" font-family="Courier New" font-size="14.00">MultiSig &lt;&lt;Contract&gt;&gt;</text>
<polyline fill="none" stroke="black" points="0,-198.9 552.88,-198.9 "/>
<text text-anchor="middle" x="24.8" y="-182.3" font-family="Courier New" font-size="14.00">slot</text>
<polyline fill="none" stroke="black" points="0,-174.1 49.61,-174.1 "/>
<text text-anchor="middle" x="24.8" y="-157.5" font-family="Courier New" font-size="14.00">0</text>
<polyline fill="none" stroke="black" points="0,-149.3 49.61,-149.3 "/>
<text text-anchor="middle" x="24.8" y="-132.7" font-family="Courier New" font-size="14.00">1</text>
<polyline fill="none" stroke="black" points="0,-124.5 49.61,-124.5 "/>
<text text-anchor="middle" x="24.8" y="-107.9" font-family="Courier New" font-size="14.00">2</text>
<polyline fill="none" stroke="black" points="0,-99.7 49.61,-99.7 "/>
<text text-anchor="middle" x="24.8" y="-83.1" font-family="Courier New" font-size="14.00">3</text>
<polyline fill="none" stroke="black" points="0,-74.9 49.61,-74.9 "/>
<text text-anchor="middle" x="24.8" y="-58.3" font-family="Courier New" font-size="14.00">4</text>
<polyline fill="none" stroke="black" points="0,-50.1 49.61,-50.1 "/>
<text text-anchor="middle" x="24.8" y="-33.5" font-family="Courier New" font-size="14.00">5</text>
<polyline fill="none" stroke="black" points="0,-25.3 49.61,-25.3 "/>
<text text-anchor="middle" x="24.8" y="-8.7" font-family="Courier New" font-size="14.00">6</text>
<polyline fill="none" stroke="black" points="49.61,-0.5 49.61,-198.9 "/>
<text text-anchor="middle" x="301.25" y="-182.3" font-family="Courier New" font-size="14.00">type: &lt;inherited contract&gt;.variable (bytes)</text>
<polyline fill="none" stroke="black" points="49.61,-174.1 552.88,-174.1 "/>
<text text-anchor="middle" x="300.83" y="-157.5" font-family="Courier New" font-size="14.00">string: MultiSigMetadata.__name (32)</text>
<polyline fill="none" stroke="black" points="49.61,-149.3 552.88,-149.3 "/>
<text text-anchor="middle" x="300.93" y="-132.7" font-family="Courier New" font-size="14.00">string: MultiSigMetadata.__version (32)</text>
<polyline fill="none" stroke="black" points="49.61,-124.5 552.88,-124.5 "/>
<text text-anchor="middle" x="301.13" y="-107.9" font-family="Courier New" font-size="14.00">uint256: Signable.__nonce (32)</text>
<polyline fill="none" stroke="black" points="49.61,-99.7 552.88,-99.7 "/>
<text text-anchor="middle" x="301.03" y="-83.1" font-family="Courier New" font-size="14.00">address[]: Signable.signers (32)</text>
<polyline fill="none" stroke="black" points="49.61,-74.9 552.88,-74.9 "/>
<text text-anchor="middle" x="301.25" y="-58.3" font-family="Courier New" font-size="14.00">mapping(address=&gt;uint256): Signable.__signatureNonces (32)</text>
<polyline fill="none" stroke="black" points="49.61,-50.1 552.88,-50.1 "/>
<text text-anchor="middle" x="301.03" y="-33.5" font-family="Courier New" font-size="14.00">uint256: ReentrancyGuard._status (32)</text>
<polyline fill="none" stroke="black" points="49.61,-25.3 552.88,-25.3 "/>
<text text-anchor="middle" x="301.22" y="-8.7" font-family="Courier New" font-size="14.00">uint256: threshold (32)</text>
</g>
<!-- 1 -->
<g id="node2" class="node">
<title>1</title>
<polygon fill="#f2f2f2" stroke="black" points="588.88,-41.5 588.88,-132.7 1159.38,-132.7 1159.38,-41.5 588.88,-41.5"/>
<text text-anchor="middle" x="874.13" y="-116.1" font-family="Courier New" font-size="14.00">address[]: signers &lt;&lt;Array&gt;&gt;</text>
<text text-anchor="middle" x="874.13" y="-99.3" font-family="Courier New" font-size="14.00">0xc2575a0e9e593c00f959f8c92f12db2869c3395a3b0502d05e2516446f71f85b</text>
<polyline fill="none" stroke="black" points="588.88,-91.1 1159.38,-91.1 "/>
<text text-anchor="middle" x="681.09" y="-74.5" font-family="Courier New" font-size="14.00">offset</text>
<polyline fill="none" stroke="black" points="588.88,-66.3 773.29,-66.3 "/>
<text text-anchor="middle" x="681.09" y="-49.7" font-family="Courier New" font-size="14.00">0</text>
<polyline fill="none" stroke="black" points="773.29,-41.5 773.29,-91.1 "/>
<text text-anchor="middle" x="965.91" y="-74.5" font-family="Courier New" font-size="14.00">type: variable (bytes)</text>
<polyline fill="none" stroke="black" points="773.29,-66.3 1158.53,-66.3 "/>
<text text-anchor="middle" x="878" y="-49.7" font-family="Courier New" font-size="14.00">unallocated (12)</text>
<polyline fill="none" stroke="black" points="982.71,-41.5 982.71,-66.3 "/>
<text text-anchor="middle" x="1070.62" y="-49.7" font-family="Courier New" font-size="14.00">address (20)</text>
</g>
<!-- 2&#45;&gt;1 -->
<g id="edge1" class="edge">
<title>2:5&#45;&gt;1</title>
<path fill="none" stroke="black" d="M552.88,-87.1C561.28,-87.1 569.79,-87.1 578.39,-87.1"/>
<polygon fill="black" stroke="black" points="578.51,-90.6 588.51,-87.1 578.51,-83.6 578.51,-90.6"/>
</g>
</g>
</svg>
